<mxfile host="65bd71144e" modified="2020-11-19T10:54:40.254Z" agent="5.0 (Windows NT 10.0; Win64; x64) AppleWebKit/537.36 (KHTML, like Gecko) Code/1.51.1 Chrome/83.0.4103.122 Electron/9.3.3 Safari/537.36" etag="Sz2OzIkj9cuAyyr0enYB" version="13.6.5">
    <diagram id="3atZ1XccQYFFualLxLAi" name="Page-1">
        <mxGraphModel dx="1374" dy="790" grid="1" gridSize="10" guides="1" tooltips="1" connect="1" arrows="1" fold="1" page="0" pageScale="0.9" pageWidth="850" pageHeight="1100" math="0" shadow="0">
            <root>
                <mxCell id="0"/>
                <mxCell id="1" parent="0"/>
                <mxCell id="7" value="" style="edgeStyle=orthogonalEdgeStyle;rounded=0;orthogonalLoop=1;jettySize=auto;html=1;" parent="1" source="2" target="3" edge="1">
                    <mxGeometry relative="1" as="geometry"/>
                </mxCell>
                <mxCell id="2" value="Program" style="rounded=0;whiteSpace=wrap;html=1;" parent="1" vertex="1">
                    <mxGeometry x="40" y="165" width="110" height="30" as="geometry"/>
                </mxCell>
                <mxCell id="12" style="edgeStyle=orthogonalEdgeStyle;rounded=0;orthogonalLoop=1;jettySize=auto;html=1;exitX=1;exitY=0.5;exitDx=0;exitDy=0;entryX=0;entryY=0.5;entryDx=0;entryDy=0;curved=1;" parent="1" source="3" target="4" edge="1">
                    <mxGeometry relative="1" as="geometry"/>
                </mxCell>
                <mxCell id="17" value="New&lt;br&gt;SelectScene&lt;br&gt;Update&lt;br&gt;Draw" style="edgeLabel;html=1;align=center;verticalAlign=middle;resizable=0;points=[];" parent="12" vertex="1" connectable="0">
                    <mxGeometry x="-0.18" y="-2" relative="1" as="geometry">
                        <mxPoint x="27" y="78" as="offset"/>
                    </mxGeometry>
                </mxCell>
                <mxCell id="18" style="edgeStyle=orthogonalEdgeStyle;rounded=0;orthogonalLoop=1;jettySize=auto;html=1;exitX=1;exitY=0.5;exitDx=0;exitDy=0;entryX=0;entryY=0.5;entryDx=0;entryDy=0;curved=1;" parent="1" source="3" target="14" edge="1">
                    <mxGeometry relative="1" as="geometry"/>
                </mxCell>
                <mxCell id="19" value="Load" style="edgeLabel;html=1;align=center;verticalAlign=middle;resizable=0;points=[];" parent="18" vertex="1" connectable="0">
                    <mxGeometry x="0.736" y="1" relative="1" as="geometry">
                        <mxPoint x="-18.619999999999997" y="0.99" as="offset"/>
                    </mxGeometry>
                </mxCell>
                <mxCell id="29" value="Initialize" style="edgeStyle=orthogonalEdgeStyle;curved=1;rounded=0;orthogonalLoop=1;jettySize=auto;html=1;exitX=1;exitY=0.5;exitDx=0;exitDy=0;entryX=0;entryY=0.5;entryDx=0;entryDy=0;" parent="1" source="3" target="28" edge="1">
                    <mxGeometry x="0.5789" relative="1" as="geometry">
                        <mxPoint as="offset"/>
                    </mxGeometry>
                </mxCell>
                <mxCell id="3" value="MainGame" style="rounded=0;whiteSpace=wrap;html=1;" parent="1" vertex="1">
                    <mxGeometry x="40" y="215" width="110" height="30" as="geometry"/>
                </mxCell>
                <mxCell id="13" style="edgeStyle=orthogonalEdgeStyle;rounded=0;orthogonalLoop=1;jettySize=auto;html=1;exitX=0.5;exitY=1;exitDx=0;exitDy=0;entryX=0.5;entryY=0;entryDx=0;entryDy=0;curved=1;" parent="1" source="4" target="6" edge="1">
                    <mxGeometry relative="1" as="geometry"/>
                </mxCell>
                <mxCell id="24" style="edgeStyle=orthogonalEdgeStyle;rounded=0;orthogonalLoop=1;jettySize=auto;html=1;exitX=0.5;exitY=1;exitDx=0;exitDy=0;entryX=0.5;entryY=0;entryDx=0;entryDy=0;curved=1;" parent="1" source="4" target="20" edge="1">
                    <mxGeometry relative="1" as="geometry"/>
                </mxCell>
                <mxCell id="25" style="edgeStyle=orthogonalEdgeStyle;rounded=0;orthogonalLoop=1;jettySize=auto;html=1;exitX=0.5;exitY=1;exitDx=0;exitDy=0;entryX=0.5;entryY=0;entryDx=0;entryDy=0;curved=1;" parent="1" source="4" target="21" edge="1">
                    <mxGeometry relative="1" as="geometry"/>
                </mxCell>
                <mxCell id="4" value="GameState" style="rounded=0;whiteSpace=wrap;html=1;" parent="1" vertex="1">
                    <mxGeometry x="300" y="355" width="110" height="30" as="geometry"/>
                </mxCell>
                <mxCell id="5" value="Scene" style="rounded=0;whiteSpace=wrap;html=1;" parent="1" vertex="1">
                    <mxGeometry x="560" y="355" width="110" height="30" as="geometry"/>
                </mxCell>
                <mxCell id="10" style="edgeStyle=orthogonalEdgeStyle;rounded=0;orthogonalLoop=1;jettySize=auto;html=1;exitX=0.5;exitY=1;exitDx=0;exitDy=0;dashed=1;entryX=0.1;entryY=0.5;entryDx=0;entryDy=0;entryPerimeter=0;" parent="1" source="5" target="26" edge="1">
                    <mxGeometry relative="1" as="geometry">
                        <mxPoint x="463.33" y="465" as="sourcePoint"/>
                        <mxPoint x="643.33" y="385" as="targetPoint"/>
                        <Array as="points">
                            <mxPoint x="615" y="480"/>
                        </Array>
                    </mxGeometry>
                </mxCell>
                <mxCell id="11" value="inherite from" style="edgeLabel;html=1;align=center;verticalAlign=middle;resizable=0;points=[];" parent="10" vertex="1" connectable="0">
                    <mxGeometry x="-0.4615" y="-2" relative="1" as="geometry">
                        <mxPoint x="7" as="offset"/>
                    </mxGeometry>
                </mxCell>
                <mxCell id="6" value="Scene_Menu" style="rounded=0;whiteSpace=wrap;html=1;" parent="1" vertex="1">
                    <mxGeometry x="160" y="465" width="110" height="30" as="geometry"/>
                </mxCell>
                <mxCell id="14" value="AssetManager" style="rounded=0;whiteSpace=wrap;html=1;" parent="1" vertex="1">
                    <mxGeometry x="300" y="225" width="110" height="30" as="geometry"/>
                </mxCell>
                <mxCell id="15" value="Fonts, musiques, effets" style="text;html=1;strokeColor=none;fillColor=none;align=left;verticalAlign=middle;whiteSpace=wrap;rounded=0;" parent="1" vertex="1">
                    <mxGeometry x="430.25" y="230" width="159.75" height="20" as="geometry"/>
                </mxCell>
                <mxCell id="20" value="Scene_Gameplay" style="rounded=0;whiteSpace=wrap;html=1;" parent="1" vertex="1">
                    <mxGeometry x="280" y="465" width="110" height="30" as="geometry"/>
                </mxCell>
                <mxCell id="21" value="Scene_Gameover" style="rounded=0;whiteSpace=wrap;html=1;" parent="1" vertex="1">
                    <mxGeometry x="400" y="465" width="110" height="30" as="geometry"/>
                </mxCell>
                <mxCell id="26" value="" style="shape=curlyBracket;whiteSpace=wrap;html=1;rounded=1;rotation=-180;" parent="1" vertex="1">
                    <mxGeometry x="530" y="460" width="20" height="40" as="geometry"/>
                </mxCell>
                <mxCell id="28" value="Inputs" style="rounded=0;whiteSpace=wrap;html=1;" parent="1" vertex="1">
                    <mxGeometry x="300" y="175" width="110" height="30" as="geometry"/>
                </mxCell>
                <mxCell id="30" value="Keyboard, Gamepad, Mouse" style="text;html=1;strokeColor=none;fillColor=none;align=left;verticalAlign=middle;whiteSpace=wrap;rounded=0;" parent="1" vertex="1">
                    <mxGeometry x="430.25" y="180" width="170" height="20" as="geometry"/>
                </mxCell>
                <mxCell id="32" value="New" style="edgeStyle=orthogonalEdgeStyle;rounded=0;orthogonalLoop=1;jettySize=auto;html=1;exitX=0;exitY=0.5;exitDx=0;exitDy=0;entryX=0.5;entryY=0;entryDx=0;entryDy=0;" parent="1" source="31" target="5" edge="1">
                    <mxGeometry x="0.125" relative="1" as="geometry">
                        <mxPoint as="offset"/>
                    </mxGeometry>
                </mxCell>
                <mxCell id="40" value="Implements" style="edgeStyle=orthogonalEdgeStyle;rounded=0;orthogonalLoop=1;jettySize=auto;html=1;exitX=1;exitY=0.5;exitDx=0;exitDy=0;entryX=0;entryY=0.5;entryDx=0;entryDy=0;dashed=1;" parent="1" source="31" target="33" edge="1">
                    <mxGeometry y="10" relative="1" as="geometry">
                        <mxPoint as="offset"/>
                    </mxGeometry>
                </mxCell>
                <mxCell id="31" value="ISpriteManager" style="rounded=0;whiteSpace=wrap;html=1;" parent="1" vertex="1">
                    <mxGeometry x="640" y="285" width="110" height="30" as="geometry"/>
                </mxCell>
                <mxCell id="38" style="edgeStyle=orthogonalEdgeStyle;rounded=0;orthogonalLoop=1;jettySize=auto;html=1;dashed=1;entryX=0.1;entryY=0.5;entryDx=0;entryDy=0;entryPerimeter=0;exitX=0.5;exitY=1;exitDx=0;exitDy=0;" parent="1" target="42" edge="1" source="61">
                    <mxGeometry relative="1" as="geometry">
                        <Array as="points">
                            <mxPoint x="883" y="385"/>
                        </Array>
                        <mxPoint x="710" y="340" as="sourcePoint"/>
                    </mxGeometry>
                </mxCell>
                <mxCell id="39" value="inherite from" style="edgeLabel;html=1;align=center;verticalAlign=middle;resizable=0;points=[];" parent="38" vertex="1" connectable="0">
                    <mxGeometry x="0.6208" y="1" relative="1" as="geometry">
                        <mxPoint x="19.1" y="-70.88" as="offset"/>
                    </mxGeometry>
                </mxCell>
                <mxCell id="33" value="SpriteManager" style="rounded=0;whiteSpace=wrap;html=1;" parent="1" vertex="1">
                    <mxGeometry x="830" y="285" width="110" height="30" as="geometry"/>
                </mxCell>
                <mxCell id="63" style="edgeStyle=orthogonalEdgeStyle;rounded=0;orthogonalLoop=1;jettySize=auto;html=1;exitX=0;exitY=0.5;exitDx=0;exitDy=0;entryX=0.5;entryY=1;entryDx=0;entryDy=0;curved=1;" edge="1" parent="1" source="37" target="20">
                    <mxGeometry relative="1" as="geometry"/>
                </mxCell>
                <mxCell id="64" value="New" style="edgeLabel;html=1;align=center;verticalAlign=middle;resizable=0;points=[];" vertex="1" connectable="0" parent="63">
                    <mxGeometry x="0.01" y="-2" relative="1" as="geometry">
                        <mxPoint x="35.25" as="offset"/>
                    </mxGeometry>
                </mxCell>
                <mxCell id="37" value="Player" style="rounded=0;whiteSpace=wrap;html=1;" parent="1" vertex="1">
                    <mxGeometry x="685" y="535" width="110" height="30" as="geometry"/>
                </mxCell>
                <mxCell id="41" value="&lt;h1&gt;Principe&lt;/h1&gt;&lt;p&gt;&lt;span&gt;Utils : active debug mode, global aspect ratio&lt;/span&gt;&lt;br&gt;&lt;/p&gt;&lt;p&gt;&lt;span style=&quot;text-align: center&quot;&gt;Tiles_TMX : utilisé dans les Scenes&lt;/span&gt;&lt;br&gt;&lt;/p&gt;&lt;div&gt;&lt;span style=&quot;text-align: center&quot;&gt;&lt;br&gt;&lt;/span&gt;&lt;/div&gt;&lt;p&gt;MainGame :&lt;/p&gt;&lt;p&gt;&lt;/p&gt;&lt;ul&gt;&lt;li&gt;initialise Inputs, AssetManager, MusicManager, Utils&lt;/li&gt;&lt;li&gt;instancie GameState et appel ses méthode pour changer de scene / Update et Draw&lt;/li&gt;&lt;li&gt;appel au update de MusicManager&lt;/li&gt;&lt;li&gt;contient le spriteBatch.Begin() / .End() commune à toutes les scenes&lt;/li&gt;&lt;ul&gt;&lt;li&gt;📌: si besoin, il est possible de créer un Begin() / .End() dans une scene&amp;nbsp; (dans ce cas appeler mainGame.spriteBatch...)&lt;/li&gt;&lt;/ul&gt;&lt;/ul&gt;&lt;p&gt;&lt;/p&gt;&lt;p&gt;&lt;span&gt;Scene : appel du Update / Draw de SpriteManager&lt;/span&gt;&lt;br&gt;&lt;/p&gt;&lt;div&gt;Scene_Gameplay :&lt;/div&gt;&lt;div&gt;&lt;ul&gt;&lt;li&gt;initialisation d'un objet Player + ajout dans liste de sprite (de SpriteManager)&lt;/li&gt;&lt;li&gt;intéraction avec le Player (move en utilisant les méthodes de Inputs)&lt;/li&gt;&lt;/ul&gt;&lt;div&gt;&lt;span&gt;Sprite :&lt;/span&gt;&lt;br&gt;&lt;/div&gt;&lt;/div&gt;&lt;p&gt;&lt;/p&gt;&lt;p&gt;&lt;p&gt;&lt;/p&gt;&lt;p&gt;&lt;/p&gt;&lt;/p&gt;&lt;ul style=&quot;color: rgb(240 , 240 , 240) ; font-family: &amp;#34;helvetica&amp;#34; ; font-size: 12px ; font-style: normal ; font-weight: 400 ; letter-spacing: normal ; text-align: left ; text-indent: 0px ; text-transform: none ; word-spacing: 0px ; background-color: rgb(42 , 42 , 42)&quot;&gt;&lt;li style=&quot;padding: 3px 0px&quot;&gt;contient les propriétés et méthodes génériques aux sprites (animation, mouvements, collision ...)&lt;/li&gt;&lt;li style=&quot;padding: 3px 0px&quot;&gt;&lt;span&gt;recalcul la Collidebox&lt;/span&gt;&lt;/li&gt;&lt;/ul&gt;&lt;p&gt;&lt;span&gt;SpriteManager :&lt;/span&gt;&lt;br&gt;&lt;/p&gt;&lt;p&gt;&lt;/p&gt;&lt;ul&gt;&lt;li&gt;&lt;span&gt;contient une liste de Sprite&amp;nbsp; &amp;nbsp;(ajout / suppression des sprites marqués &quot;à supprimer&quot;)&lt;/span&gt;&lt;/li&gt;&lt;li&gt;&lt;span&gt;boucle pour lancer Update / Draw pour chaque sprite de la liste&lt;/span&gt;&lt;/li&gt;&lt;/ul&gt;&lt;p&gt;&lt;/p&gt;&lt;p&gt;&lt;span&gt;Player / Metor hérite de Sprite et contient les méthodes spécifiques à cet objet (energie ...)&lt;/span&gt;&lt;br&gt;&lt;/p&gt;&lt;p&gt;&lt;span&gt;Button :&lt;/span&gt;&lt;br&gt;&lt;/p&gt;&lt;div&gt;&lt;ul&gt;&lt;li&gt;contient des Delegates (ou Events) (ex : lors d'un click)&lt;/li&gt;&lt;li&gt;est utilisé dans les scenes pour lancer des actions (ex : Scene_Menu est associée à un delegate (ou event) pour lancer une méthode locale)&lt;/li&gt;&lt;/ul&gt;&lt;/div&gt;&lt;p&gt;&lt;/p&gt;" style="text;html=1;strokeColor=none;fillColor=none;spacing=5;spacingTop=-20;whiteSpace=wrap;overflow=hidden;rounded=0;" parent="1" vertex="1">
                    <mxGeometry x="50" y="620" width="770" height="645" as="geometry"/>
                </mxCell>
                <mxCell id="42" value="" style="shape=curlyBracket;whiteSpace=wrap;html=1;rounded=1;rotation=-181;" parent="1" vertex="1">
                    <mxGeometry x="810" y="525" width="20" height="80" as="geometry"/>
                </mxCell>
                <mxCell id="43" value="Meteor" style="rounded=0;whiteSpace=wrap;html=1;" parent="1" vertex="1">
                    <mxGeometry x="685" y="575" width="110" height="30" as="geometry"/>
                </mxCell>
                <mxCell id="45" value="Utils" style="rounded=0;whiteSpace=wrap;html=1;" parent="1" vertex="1">
                    <mxGeometry x="300.25" y="125" width="110" height="30" as="geometry"/>
                </mxCell>
                <mxCell id="46" value="Initialize" style="edgeStyle=orthogonalEdgeStyle;curved=1;rounded=0;orthogonalLoop=1;jettySize=auto;html=1;exitX=1;exitY=0.5;exitDx=0;exitDy=0;entryX=0;entryY=0.5;entryDx=0;entryDy=0;" parent="1" source="3" target="45" edge="1">
                    <mxGeometry x="0.6522" relative="1" as="geometry">
                        <mxPoint as="offset"/>
                        <mxPoint x="160" y="240" as="sourcePoint"/>
                        <mxPoint x="309.75" y="240" as="targetPoint"/>
                    </mxGeometry>
                </mxCell>
                <mxCell id="47" value="Collisions, ScreenHeight (...), Random" style="text;html=1;strokeColor=none;fillColor=none;align=left;verticalAlign=middle;whiteSpace=wrap;rounded=0;" parent="1" vertex="1">
                    <mxGeometry x="430.25" y="130" width="220" height="20" as="geometry"/>
                </mxCell>
                <mxCell id="48" value="Button" style="rounded=0;whiteSpace=wrap;html=1;" parent="1" vertex="1">
                    <mxGeometry x="300" y="25" width="110" height="30" as="geometry"/>
                </mxCell>
                <mxCell id="49" value="Delegates (or Events)" style="text;html=1;strokeColor=none;fillColor=none;align=left;verticalAlign=middle;whiteSpace=wrap;rounded=0;" parent="1" vertex="1">
                    <mxGeometry x="430.25" y="30" width="170" height="20" as="geometry"/>
                </mxCell>
                <mxCell id="50" value="MusicManager" style="rounded=0;whiteSpace=wrap;html=1;" parent="1" vertex="1">
                    <mxGeometry x="300.25" y="275" width="110" height="30" as="geometry"/>
                </mxCell>
                <mxCell id="51" value="Play" style="text;html=1;strokeColor=none;fillColor=none;align=left;verticalAlign=middle;whiteSpace=wrap;rounded=0;" parent="1" vertex="1">
                    <mxGeometry x="430.25" y="280" width="99.75" height="20" as="geometry"/>
                </mxCell>
                <mxCell id="53" style="edgeStyle=orthogonalEdgeStyle;rounded=0;orthogonalLoop=1;jettySize=auto;html=1;exitX=1;exitY=0.5;exitDx=0;exitDy=0;entryX=0;entryY=0.5;entryDx=0;entryDy=0;curved=1;" parent="1" source="3" target="50" edge="1">
                    <mxGeometry relative="1" as="geometry">
                        <mxPoint x="160" y="240" as="sourcePoint"/>
                        <mxPoint x="310" y="250" as="targetPoint"/>
                    </mxGeometry>
                </mxCell>
                <mxCell id="54" value="Initialize" style="edgeLabel;html=1;align=center;verticalAlign=middle;resizable=0;points=[];" parent="53" vertex="1" connectable="0">
                    <mxGeometry x="0.736" y="1" relative="1" as="geometry">
                        <mxPoint x="-12" y="1" as="offset"/>
                    </mxGeometry>
                </mxCell>
                <mxCell id="55" value="&lt;i&gt;Actors&lt;/i&gt;" style="text;html=1;strokeColor=#005700;fillColor=#008a00;align=center;verticalAlign=middle;whiteSpace=wrap;rounded=0;fontColor=#ffffff;" parent="1" vertex="1">
                    <mxGeometry x="720" y="495" width="40" height="20" as="geometry"/>
                </mxCell>
                <mxCell id="56" value="&lt;i&gt;Scenes&lt;/i&gt;" style="text;html=1;strokeColor=#005700;fillColor=#008a00;align=center;verticalAlign=middle;whiteSpace=wrap;rounded=0;fontColor=#ffffff;" parent="1" vertex="1">
                    <mxGeometry x="100" y="470" width="40" height="20" as="geometry"/>
                </mxCell>
                <mxCell id="57" value="SpriteAnimation" style="rounded=0;whiteSpace=wrap;html=1;" parent="1" vertex="1">
                    <mxGeometry x="950" y="355" width="110" height="30" as="geometry"/>
                </mxCell>
                <mxCell id="58" value="Tiles_TMX" style="rounded=0;whiteSpace=wrap;html=1;" parent="1" vertex="1">
                    <mxGeometry x="300" y="75" width="110" height="30" as="geometry"/>
                </mxCell>
                <mxCell id="59" value="Tiled (.tmx)" style="text;html=1;strokeColor=none;fillColor=none;align=left;verticalAlign=middle;whiteSpace=wrap;rounded=0;" parent="1" vertex="1">
                    <mxGeometry x="430" y="80" width="220" height="20" as="geometry"/>
                </mxCell>
                <mxCell id="61" value="Sprite" style="rounded=0;whiteSpace=wrap;html=1;" parent="1" vertex="1">
                    <mxGeometry x="830" y="355" width="110" height="30" as="geometry"/>
                </mxCell>
                <mxCell id="62" value="List&amp;lt;&amp;gt;" style="edgeStyle=orthogonalEdgeStyle;rounded=0;orthogonalLoop=1;jettySize=auto;html=1;exitX=0.5;exitY=1;exitDx=0;exitDy=0;entryX=0.5;entryY=0;entryDx=0;entryDy=0;" edge="1" parent="1" source="33" target="61">
                    <mxGeometry x="-0.25" relative="1" as="geometry">
                        <mxPoint as="offset"/>
                        <mxPoint x="650" y="310" as="sourcePoint"/>
                        <mxPoint x="625" y="365" as="targetPoint"/>
                    </mxGeometry>
                </mxCell>
            </root>
        </mxGraphModel>
    </diagram>
</mxfile>